# xmcd
#
# Track frame offsets:
#	150
#	19050
#	35802
#	52877
#	67767
#	81707
#	99985
#	116930
#	132577
#	148482
#	167482
#	185197
#	205467
#	220135
#	239222
#	255470
#
# Disc length: 3570 seconds
#
# Revision: 2
# Processed by: cddbd v1.5.1PL0 Copyright (c) Steve Scherf et al.
# Submitted via: EasyCDDAExtractor 6.5.7.1
#
DISCID=000df010
DTITLE=Various Artist - Só Chamame V3
DYEAR=2000
DGENRE=Country
TTITLE0=Os Tiranos - Chamamé sem Fronteiras
TTITLE1=Os Parceiros - Chiquita
TTITLE2=Rui Biriva - No meio do Floreio
TTITLE3=Chiquito e Grupo Rodeio - Chamamé pra Ti
TTITLE4=Tchê Garoto - Peão Apaixonado
TTITLE5=Grupo Raízes - Pra uma Mulher
TTITLE6=Grupo Minuano - Linda Morena
TTITLE7=Os Galponeiros - Beija Flor
TTITLE8=Fogo de Chão - Regresso de Carreteiro
TTITLE9=Grupo Manotaço - Visita de Domingo
TTITLE10=Gurizada Medonha - Margarida
TTITLE11=Luiz Carlos Borges - Caçapavana
TTITLE12=Daniel Torres - Chamamé Missioneiro
TTITLE13=Garotos do Sul - Noutros pagos
TTITLE14=Xiruzinho - Palavra Triste
TTITLE15=Marinês Siqueira - Rosinha
EXTD=
EXTT0=
EXTT1=
EXTT2=
EXTT3=
EXTT4=
EXTT5=
EXTT6=
EXTT7=
EXTT8=
EXTT9=
EXTT10=
EXTT11=
EXTT12=
EXTT13=
EXTT14=
EXTT15=
PLAYORDER=
